<svg height="260pt" preserveAspectRatio="xMidYMid meet" viewBox="0 0 260 260" width="260pt" xmlns="http://www.w3.org/2000/svg"><g transform="matrix(.1 0 0 -.1 0 260)"><path d="m820 2397c-3-3-29-7-58-10s-72-13-97-22c-50-20-51-22-61-160-3-49-7-110-9-135s-7-92-10-150c-4-58-9-112-10-120-2-8-4-35-4-59l-1-44-62 7c-35 3-72 8-83 10-16 3-120 16-145 18-54 4-51-18 8-73 48-45 117-84 162-92 14-3 79-19 145-37 66-17 136-33 155-36 19-2 46-7 60-9 149-28 339-35 525-21 55 4 126 9 158 11 120 9 292 34 477 70 13 3 42 7 65 11 128 19 239 48 266 71 8 7 21 13 27 13 7 0 12 5 12 11 0 5 4 8 9 5 4-3 13 6 19 19s8 26 4 29c-11 6-68 14-157 21-110 8-151 14-194 28-40 13-39 12-56 187-3 36-10 110-16 165-23 236-24 239-91 251-80 13-80 13-418 29-176 8-615 16-620 12z"/><path d="m736 1432-138-3 6-52c22-170 56-261 108-292 18-11 35-20 38-20s12-5 20-10c24-16 325-17 363-1 46 19 54 32 82 141 25 98 43 126 76 118 17-5 36-55 59-161 23-100 50-111 260-112 128 0 138 1 196 29 41 19 68 40 81 62 21 33 45 128 61 242l9 57-171 1c-474 3-926 4-1050 1z"/><path d="m1190 809c0-6-6-9-14-6-7 3-23-1-35-9s-26-12-31-9c-6 4-24-5-41-19-24-21-34-24-50-16-13 7-19 7-20 0-1-5-2-15-3-20 0-6-6-14-12-18s-20-22-31-40c-16-25-19-41-13-72 4-22 6-56 4-77-15-170-12-196 28-235 91-90 212-135 357-132 95 2 125 13 274 107 72 45 80 67 83 241 3 139 1 152-21 195-21 43-28 48-91 68-50 16-71 19-81 12-9-8-14-7-18 3-3 8-11 15-18 16-7 0-41 3-77 5-36 3-80 8-97 12-22 5-33 4-33-4 0-6-9-11-20-11s-20 5-20 10c0 6-4 10-10 10-5 0-10-5-10-11zm59-189c10-5 21-7 24-4s27 6 54 6c26 0 54 4 60 10 8 6 34 7 65 4 77-10 98-17 98-33 0-8 7-28 16-45 25-49 12-92-37-117-22-12-42-21-44-21-3 0-16 21-29 48-30 60-49 77-110 97-88 30-169-7-196-89-6-20-9-40-5-46 3-5-1-10-10-10-8 0-18 7-21 15-4 9-26 25-50 36-47 21-49 25-34 80 13 47 40 70 86 75 20 2 39 6 42 9 8 7 68-2 91-15z"/></g></svg>